<?xml version="1.0" standalone="no"?>
<!DOCTYPE svg PUBLIC "-//W3C//DTD SVG 20010904//EN"
 "http://www.w3.org/TR/2001/REC-SVG-20010904/DTD/svg10.dtd">
<svg version="1.0" xmlns="http://www.w3.org/2000/svg"
 width="100.000000pt" height="100.000000pt" viewBox="0 0 100.000000 100.000000"
 preserveAspectRatio="xMidYMid meet">

<g transform="translate(0.000000,100.000000) scale(0.100000,-0.100000)"
fill="#000000" stroke="none">
<path d="M153 828 l-90 -123 44 -3 43 -3 0 -125 0 -124 95 0 95 0 0 124 0 125
44 3 43 3 -84 120 c-46 66 -87 121 -92 123 -4 1 -48 -53 -98 -120z"/>
<path d="M520 789 c0 -50 3 -60 15 -55 8 3 27 1 41 -4 20 -8 25 -16 22 -38 -3
-25 -6 -27 -45 -26 -35 1 -43 -3 -43 -17 0 -23 54 -35 92 -20 73 28 61 141
-15 141 -20 0 -27 5 -27 20 0 17 7 20 40 20 33 0 40 3 40 20 0 18 -7 20 -60
20 l-60 0 0 -61z"/>
<path d="M690 845 c0 -3 13 -29 29 -57 l29 -51 -34 -53 c-19 -29 -34 -56 -34
-59 0 -3 13 -5 28 -5 24 0 32 7 47 40 10 22 21 40 25 40 4 0 15 -18 25 -40 15
-33 23 -40 47 -40 15 0 28 2 28 5 0 3 -13 27 -30 53 -31 51 -36 71 -22 87 5 6
19 27 31 48 l23 37 -29 0 c-24 0 -33 -7 -50 -42 l-21 -43 -17 43 c-15 36 -21
42 -46 42 -16 0 -29 -2 -29 -5z"/>
<path d="M440 430 l0 -130 -50 0 c-49 0 -50 0 -31 -19 20 -20 121 -166 121
-175 0 -7 46 -56 53 -56 5 0 177 237 177 245 0 3 -18 5 -40 5 l-40 0 0 130 0
130 -95 0 -95 0 0 -130z"/>
</g>
</svg>
